<svg width="1048" height="307" viewBox="0 0 1048 307" fill="none" xmlns="http://www.w3.org/2000/svg">
<path d="M314.99 261.773C299.644 271.289 277.633 269.395 248.858 256.47C220.293 243.64 186.212 220.441 147.724 189.444C103.752 149.472 71.1726 119.061 52.517 94.9814C43.18 82.9298 37.6362 72.8383 35.7243 64.2379C33.871 55.9006 35.3995 48.891 40.5948 42.4414C44.1074 38.0807 50.7228 35.7939 61.178 36.6057C71.5348 37.4099 84.7409 41.2163 100.037 47.8032C130.576 60.9543 168.52 84.7822 206.946 115.735C245.582 146.858 282.424 178.408 304.509 205.236C315.603 218.713 322.564 230.524 324.501 240.153C325.451 244.876 325.156 248.896 323.715 252.326C322.28 255.744 319.552 258.945 314.99 261.773Z" stroke="#312E33" stroke-width="8"/>
<path d="M324.686 72.0717C310.461 61.124 288.497 60.7912 258.726 70.6993C229.174 80.5347 193.123 100.079 151.929 126.899C104.406 162.055 69.1189 188.887 48.2457 210.847C37.7987 221.838 31.3039 231.267 28.5517 239.583C25.8843 247.643 26.6943 254.726 31.1862 261.624C34.2201 266.283 40.5294 269.208 50.9551 269.452C61.2821 269.693 74.7306 267.25 90.5272 262.263C122.066 252.308 162.003 232.528 203.132 205.744C244.486 178.813 284.106 151.281 308.648 126.944C320.977 114.718 329.047 103.729 331.926 94.3982C333.338 89.8226 333.448 85.8189 332.368 82.2854C331.291 78.7636 328.915 75.326 324.686 72.0717Z" stroke="#312E33" stroke-width="8"/>
<path d="M266.207 168.323C266.207 194.077 257.042 215.936 241.455 231.524C225.87 247.108 203.649 256.637 177.156 257.322C124.576 257.298 88.2069 219.16 88.2069 168.323C88.2069 114.963 131.748 79.3225 177.207 79.3225C205.086 79.3225 227.254 88.8549 242.456 104.552C257.677 120.269 266.207 142.472 266.207 168.323Z" fill="white" stroke="white" stroke-width="8"/>
<path d="M151.018 69.8509L148.33 36H209V70.9252L151.018 69.8509Z" stroke="white" stroke-width="8"/>
<path d="M257.707 145.323C257.707 167.138 238.193 175.823 217.482 175.823C196.772 175.823 226.982 158.138 226.982 136.323C226.982 114.507 188.496 87.3225 209.207 87.3225C229.918 87.3225 257.707 123.507 257.707 145.323Z" fill="url(#paint0_linear_11_35)"/>
<path d="M173.707 263.323C184.207 263.323 277.468 243.038 269.207 169.323C265.597 137.112 219.707 141.823 175.707 164.823C140.207 183.38 101.049 185.107 81.7069 169.323C81.707 248.823 165.506 263.323 173.707 263.323Z" fill="url(#paint1_linear_11_35)" stroke="#312E33" stroke-width="8"/>
<path d="M131.986 20.2552C133.832 13.4837 139.856 8.69073 146.869 8.41179L176.049 7.25123L206.33 7.71949C214.611 7.84755 221.514 14.0746 222.506 22.2807C222.621 28.7082 217.441 34 210.992 34H141.805C135.959 34 131.27 29.1666 131.447 23.3228C131.471 22.5072 131.592 21.6973 131.807 20.91L131.986 20.2552Z" stroke="white" stroke-width="8"/>
<path d="M281 168.5C281 198.424 270.349 223.853 252.206 241.997C234.066 260.137 208.22 271.206 177.449 272C116.314 271.976 74 227.603 74 168.5C74 106.44 124.646 65 177.5 65C209.874 65 235.668 76.073 253.37 94.353C271.092 112.653 281 138.481 281 168.5Z" stroke="white" stroke-width="8"/>
<path d="M158.317 70.1953L156.251 36.3225H201V71.2249L158.317 70.1953Z" stroke="#312E33" stroke-width="8"/>
<path d="M187.207 255.112C197.264 252.095 243.207 242.112 268.207 195.066C283.417 166.444 274.725 186.812 235.707 199.566C172.207 220.322 132.207 206.579 93.7069 192.323C105.707 243.369 177.207 258.112 187.207 255.112Z" fill="url(#paint2_linear_11_35)"/>
<path d="M188.207 259.906C198.264 256.888 237.707 256.951 262.707 209.906C277.917 181.283 252.707 201.212 217.207 221.823C173.207 247.368 121.707 229.823 92.2069 217.649C116.707 255.406 178.207 262.906 188.207 259.906Z" fill="url(#paint3_linear_11_35)"/>
<path d="M273.207 168.323C273.207 196.09 263.325 219.673 246.503 236.494C229.685 253.312 205.714 263.585 177.156 264.322C120.446 264.298 81.2069 223.15 81.2069 168.323C81.2069 110.763 128.178 72.3225 177.207 72.3225C207.256 72.3225 231.174 82.5986 247.583 99.5427C264.012 116.507 273.207 140.46 273.207 168.323Z" stroke="#312E33" stroke-width="8"/>
<path d="M266.207 168.323C266.207 194.077 257.042 215.936 241.455 231.524C225.87 247.108 203.649 256.637 177.156 257.322C124.576 257.298 88.2069 219.16 88.2069 168.323C88.2069 114.963 131.748 79.3225 177.207 79.3225C205.086 79.3225 227.254 88.8549 242.456 104.552C257.677 120.269 266.207 142.472 266.207 168.323Z" stroke="white" stroke-width="8"/>
<path d="M165.835 77.1602L164.369 40.3225H193.207V78.1719L165.835 77.1602Z" fill="white" stroke="white" stroke-width="8"/>
<rect x="134.207" y="10.3225" width="85" height="28" rx="14" fill="white"/>
<rect x="138.207" y="14.3225" width="77" height="20" rx="10" fill="url(#paint4_linear_11_35)" fill-opacity="0.5" stroke="#312E33" stroke-width="8"/>
<rect x="138.207" y="12.3225" width="67" height="15" rx="7.5" fill="white"/>
<rect x="138.207" y="14.3225" width="77" height="20" rx="10" stroke="#312E33" stroke-width="8"/>
<path d="M310.207 62.8225C310.207 72.5725 303.071 79.3225 293.707 79.3225C283.207 79.3225 277.207 71.9352 277.207 62.8225C277.207 53.7098 285.457 46.3225 293.707 46.3225C303.457 46.3225 310.207 52.3225 310.207 62.8225Z" fill="#312E33"/>
<path d="M71.2069 105.823C71.2069 112.027 66.6657 116.323 60.7069 116.323C54.0251 116.323 50.2069 111.622 50.2069 105.823C50.2069 100.024 55.4569 95.3225 60.7069 95.3225C66.9115 95.3225 71.2069 99.1407 71.2069 105.823Z" fill="#312E33"/>
<path d="M274.207 282.823C274.207 288.323 212.707 291.323 179.707 291.323C145.707 291.323 85.2069 286.323 85.2069 282.823C85.2069 277.323 107.707 275.823 179.707 274.323C238.207 274.323 274.207 277.323 274.207 282.823Z" fill="#312E33"/>
<path d="M161.207 42.3225L197.207 42.3225" stroke="url(#paint5_linear_11_35)" stroke-width="8"/>
<path d="M187.207 75.3225L187.207 46.3225" stroke="url(#paint6_linear_11_35)" stroke-width="20"/>
<path d="M376.188 201.323H361.688C361.271 201.323 361.062 201.114 361.062 200.698L361.188 112.76C361.188 112.427 361.354 112.26 361.688 112.26H376.062C376.396 112.26 376.562 112.427 376.562 112.76L376.688 200.698C376.688 201.114 376.521 201.323 376.188 201.323ZM399.097 201.323H384.597C384.264 201.323 384.097 201.114 384.097 200.698L384.347 112.76C384.347 112.427 384.514 112.26 384.847 112.26H410.722C415.347 112.26 419.597 113.385 423.472 115.635C427.347 117.885 430.431 120.906 432.722 124.698C435.056 128.489 436.222 132.781 436.222 137.573C436.222 140.698 435.743 143.531 434.785 146.073C433.827 148.614 432.702 150.76 431.41 152.51C430.16 154.26 429.014 155.552 427.972 156.385C432.597 161.51 434.91 167.531 434.91 174.448L435.035 200.698C435.035 201.114 434.827 201.323 434.41 201.323H419.91C419.577 201.323 419.41 201.198 419.41 200.948V174.448C419.41 171.364 418.327 168.698 416.16 166.448C413.993 164.198 411.327 163.073 408.16 163.073H399.722L399.597 200.698C399.597 201.114 399.431 201.323 399.097 201.323ZM410.722 127.573H399.722V147.698H410.722C413.347 147.698 415.681 146.718 417.722 144.76C419.806 142.802 420.847 140.406 420.847 137.573C420.847 134.864 419.847 132.531 417.847 130.573C415.847 128.573 413.472 127.573 410.722 127.573ZM463.07 202.573C458.528 202.573 454.341 201.406 450.507 199.073C446.716 196.739 443.653 193.635 441.32 189.76C439.028 185.843 437.882 181.552 437.882 176.885L438.007 136.323C438.007 131.573 439.153 127.302 441.445 123.51C443.695 119.677 446.737 116.614 450.57 114.323C454.403 111.989 458.57 110.823 463.07 110.823C467.737 110.823 471.924 111.968 475.632 114.26C479.382 116.552 482.382 119.635 484.632 123.51C486.924 127.343 488.07 131.614 488.07 136.323L488.195 176.885C488.195 181.552 487.07 185.823 484.82 189.698C482.528 193.614 479.487 196.739 475.695 199.073C471.903 201.406 467.695 202.573 463.07 202.573ZM463.07 187.135C465.653 187.135 467.903 186.093 469.82 184.01C471.737 181.885 472.695 179.51 472.695 176.885L472.57 136.323C472.57 133.489 471.674 131.093 469.882 129.135C468.091 127.177 465.82 126.198 463.07 126.198C460.445 126.198 458.195 127.156 456.32 129.073C454.445 130.989 453.507 133.406 453.507 136.323V176.885C453.507 179.677 454.445 182.093 456.32 184.135C458.195 186.135 460.445 187.135 463.07 187.135ZM507.98 201.323H495.167C494.501 201.323 494.167 201.031 494.167 200.448L494.042 113.26C494.042 112.593 494.376 112.26 495.042 112.26H506.605L528.23 162.698L527.605 113.26C527.605 112.593 527.98 112.26 528.73 112.26H541.417C541.917 112.26 542.167 112.593 542.167 113.26L542.292 200.573C542.292 201.073 542.084 201.323 541.667 201.323H530.417L508.23 154.198L509.167 200.323C509.167 200.989 508.772 201.323 507.98 201.323ZM574.675 200.698L590.55 112.76C590.633 112.427 590.842 112.26 591.175 112.26H609.738C610.071 112.26 610.279 112.427 610.363 112.76L625.613 200.698C625.654 201.114 625.488 201.323 625.113 201.323H610.925C610.508 201.323 610.279 201.114 610.238 200.698L608.863 191.323H591.425L590.05 200.698C590.008 201.114 589.8 201.323 589.425 201.323H575.175C574.842 201.323 574.675 201.114 574.675 200.698ZM599.738 141.698L593.988 177.635H606.3L601.05 141.698L600.3 136.948L599.738 141.698ZM671.647 201.323H630.272C629.939 201.323 629.772 201.114 629.772 200.698L629.897 112.885C629.897 112.468 630.106 112.26 630.522 112.26H644.772C645.189 112.26 645.397 112.468 645.397 112.885L645.272 185.573H671.647C672.064 185.573 672.272 185.781 672.272 186.198V200.698C672.272 201.114 672.064 201.323 671.647 201.323ZM700.37 202.573C695.745 202.573 691.516 201.406 687.682 199.073C683.891 196.739 680.87 193.614 678.62 189.698C676.412 185.739 675.307 181.343 675.307 176.51L675.432 136.573C675.432 131.823 676.516 127.531 678.682 123.698C680.849 119.823 683.828 116.718 687.62 114.385C691.453 112.01 695.703 110.823 700.37 110.823C705.12 110.823 709.349 111.968 713.057 114.26C716.807 116.552 719.787 119.656 721.995 123.573C724.245 127.448 725.37 131.781 725.37 136.573V142.448C725.37 142.781 725.203 142.948 724.87 142.948H710.495C710.162 142.948 709.995 142.781 709.995 142.448V136.573C709.995 133.739 709.078 131.302 707.245 129.26C705.412 127.218 703.12 126.198 700.37 126.198C697.328 126.198 694.995 127.239 693.37 129.323C691.745 131.406 690.932 133.823 690.932 136.573V176.51C690.932 179.635 691.849 182.198 693.682 184.198C695.516 186.156 697.745 187.135 700.37 187.135C703.12 187.135 705.412 186.052 707.245 183.885C709.078 181.677 709.995 179.218 709.995 176.51V170.573C709.995 170.239 710.162 170.073 710.495 170.073H724.995C725.328 170.073 725.495 170.239 725.495 170.573V176.51C725.495 181.302 724.37 185.677 722.12 189.635C719.828 193.552 716.807 196.698 713.057 199.073C709.307 201.406 705.078 202.573 700.37 202.573ZM745.967 201.323H731.467C731.134 201.323 730.967 201.114 730.967 200.698L731.092 112.76C731.092 112.427 731.301 112.26 731.717 112.26H745.967C746.384 112.26 746.592 112.427 746.592 112.76L746.467 147.573H765.655V112.76C765.655 112.427 765.822 112.26 766.155 112.26H780.405C780.822 112.26 781.03 112.427 781.03 112.76L781.28 200.698C781.28 201.114 781.072 201.323 780.655 201.323H766.28C765.863 201.323 765.655 201.114 765.655 200.698V163.073H746.467V200.698C746.467 201.114 746.301 201.323 745.967 201.323ZM829.753 201.323H788.378C788.044 201.323 787.878 201.114 787.878 200.698L788.003 112.76C788.003 112.427 788.169 112.26 788.503 112.26H829.628C829.961 112.26 830.128 112.468 830.128 112.885V127.198C830.128 127.531 829.961 127.698 829.628 127.698H803.378V147.698H829.628C829.961 147.698 830.128 147.864 830.128 148.198L830.253 162.698C830.253 163.031 830.086 163.198 829.753 163.198H803.378V185.573H829.753C830.086 185.573 830.253 185.781 830.253 186.198V200.823C830.253 201.156 830.086 201.323 829.753 201.323ZM852.788 201.323H838.288C837.954 201.323 837.788 201.114 837.788 200.698L838.038 112.76C838.038 112.427 838.204 112.26 838.538 112.26H854.163C854.496 112.26 854.788 112.427 855.038 112.76L866.725 129.635L878.35 112.76C878.6 112.427 878.913 112.26 879.288 112.26H894.975C895.35 112.26 895.538 112.427 895.538 112.76L895.788 200.698C895.788 201.114 895.621 201.323 895.288 201.323H880.788C880.454 201.323 880.288 201.114 880.288 200.698L880.163 135.385L866.725 154.885L853.413 135.385L853.288 200.698C853.288 201.114 853.121 201.323 852.788 201.323ZM929.385 201.323H914.698C914.406 201.323 914.26 201.156 914.26 200.823L914.385 164.448L897.26 112.76C897.177 112.427 897.302 112.26 897.635 112.26H911.885C912.302 112.26 912.552 112.427 912.635 112.76L922.073 147.198L931.698 112.76C931.781 112.427 931.989 112.26 932.323 112.26H946.698C947.031 112.26 947.156 112.427 947.073 112.76L929.76 163.948L929.885 200.823C929.885 201.156 929.718 201.323 929.385 201.323Z" fill="#312E33"/>
<defs>
<linearGradient id="paint0_linear_11_35" x1="230.396" y1="87.3225" x2="230.396" y2="175.823" gradientUnits="userSpaceOnUse">
<stop stop-color="#311F3C" stop-opacity="0.5"/>
<stop offset="1" stop-color="#311F3C" stop-opacity="0"/>
</linearGradient>
<linearGradient id="paint1_linear_11_35" x1="249.707" y1="146.323" x2="125.707" y2="186.323" gradientUnits="userSpaceOnUse">
<stop stop-color="#EAEAEA"/>
<stop offset="1" stop-color="#DBDBDB"/>
</linearGradient>
<linearGradient id="paint2_linear_11_35" x1="249.5" y1="187.323" x2="148.707" y2="239.612" gradientUnits="userSpaceOnUse">
<stop stop-color="#C7C7C7"/>
<stop offset="1" stop-color="#BCBCBC"/>
</linearGradient>
<linearGradient id="paint3_linear_11_35" x1="247.207" y1="212.323" x2="142.707" y2="242.823" gradientUnits="userSpaceOnUse">
<stop stop-color="#616161"/>
<stop offset="1" stop-color="#BCBCBC"/>
</linearGradient>
<linearGradient id="paint4_linear_11_35" x1="142.707" y1="24.3225" x2="210.707" y2="24.3225" gradientUnits="userSpaceOnUse">
<stop offset="0.13" stop-color="#3B3240" stop-opacity="0"/>
<stop offset="1" stop-color="#252127"/>
</linearGradient>
<linearGradient id="paint5_linear_11_35" x1="174.952" y1="42.3225" x2="161.207" y2="42.3225" gradientUnits="userSpaceOnUse">
<stop stop-color="#311F3C" stop-opacity="0.5"/>
<stop offset="1" stop-color="#311F3C" stop-opacity="0"/>
</linearGradient>
<linearGradient id="paint6_linear_11_35" x1="187.207" y1="55.7644" x2="187.207" y2="75.3225" gradientUnits="userSpaceOnUse">
<stop stop-color="#311F3C" stop-opacity="0.5"/>
<stop offset="1" stop-color="#311F3C" stop-opacity="0"/>
</linearGradient>
</defs>
</svg>
